<svg width="249" height="40" viewBox="0 0 249 40" fill="none" xmlns="http://www.w3.org/2000/svg">
<path d="M29.64 12.06C31.12 14.42 31.86 17.08 31.86 20.04L31.68 39.42H25.56V20.04C25.56 17.28 24.6 15.1 22.68 13.5C20.8 11.9 18.54 11.1 15.9 11.1C13.18 11.1 10.88 11.9 8.99996 13.5C7.07996 15.1 6.11996 17.28 6.11996 20.04V39.42H-3.89516e-05V20.04C-3.89516e-05 17.08 0.719961 14.44 2.15996 12.12C3.63996 9.80004 5.61996 8.02004 8.09996 6.78004C10.58 5.54004 13.18 4.92004 15.9 4.92004C18.7 4.92004 21.3 5.56004 23.7 6.84004C26.14 8.08004 28.12 9.82004 29.64 12.06ZM67.4179 13.14C68.9779 15.74 69.7579 18.54 69.7579 21.54L69.6979 39.12H63.5779V22.08C63.5779 20.08 63.0579 18.24 62.0179 16.56C61.0179 14.84 59.6779 13.48 57.9979 12.48C56.3179 11.48 54.4779 10.98 52.4779 10.98C50.5179 10.98 48.6779 11.48 46.9579 12.48C45.2379 13.48 43.8979 14.82 42.9379 16.5C41.8979 18.14 41.3779 20 41.3779 22.08C41.3779 24.04 41.8779 25.88 42.8779 27.6C43.8779 29.28 45.2179 30.62 46.8979 31.62C48.5379 32.62 50.3979 33.12 52.4779 33.12C54.1579 33.12 55.7979 32.72 57.3979 31.92V38.58C55.7579 39.1 54.1179 39.36 52.4779 39.36C49.3579 39.36 46.4779 38.58 43.8379 37.02C41.1979 35.46 39.0979 33.34 37.5379 30.66C35.9779 28.06 35.1979 25.2 35.1979 22.08C35.1979 18.96 35.9779 16.08 37.5379 13.44C39.0979 10.76 41.2179 8.64004 43.8979 7.08004C46.4979 5.56004 49.3579 4.80004 52.4779 4.80004C55.5179 4.80004 58.3579 5.56004 60.9979 7.08004C63.6779 8.56004 65.8179 10.58 67.4179 13.14ZM71.9067 4.92004H79.7667L85.1667 21.36L81.7467 31.92L71.9067 4.92004ZM97.2267 4.92004H104.967L92.5467 39.42L85.8267 39.48L97.2267 4.92004ZM114.731 7.38004H107.351V4.36306e-05H114.731V7.38004ZM114.731 39.42H107.351V13.56H114.731V39.42ZM136.881 28.5V22.32H153.021C152.461 26.76 151.221 30.22 149.301 32.7C147.701 34.78 145.701 36.42 143.301 37.62C140.981 38.82 138.441 39.42 135.681 39.42C132.561 39.42 129.681 38.64 127.041 37.08C124.401 35.52 122.301 33.4 120.741 30.72C119.181 28.12 118.401 25.26 118.401 22.14C118.401 19.02 119.181 16.14 120.741 13.5C122.301 10.82 124.421 8.70004 127.101 7.14004C129.701 5.62004 132.561 4.86004 135.681 4.86004C138.361 4.86004 140.881 5.46004 143.241 6.66004C145.641 7.82004 147.661 9.44004 149.301 11.52C150.741 13.44 151.761 15.52 152.361 17.76L145.821 17.7C145.021 15.78 143.741 14.22 141.981 13.02C140.101 11.7 138.001 11.04 135.681 11.04C133.721 11.04 131.881 11.54 130.161 12.54C128.441 13.54 127.101 14.88 126.141 16.56C125.101 18.2 124.581 20.06 124.581 22.14C124.581 24.1 125.081 25.94 126.081 27.66C127.081 29.34 128.441 30.68 130.161 31.68C131.761 32.72 133.601 33.24 135.681 33.24C138.001 33.24 140.121 32.56 142.041 31.2C142.641 30.8 143.241 30.26 143.841 29.58L144.861 28.5H136.881ZM187.769 13.14C189.329 15.74 190.109 18.54 190.109 21.54L190.049 39.12H183.929V22.08C183.929 20.08 183.409 18.24 182.369 16.56C181.369 14.84 180.029 13.48 178.349 12.48C176.669 11.48 174.829 10.98 172.829 10.98C170.869 10.98 169.029 11.48 167.309 12.48C165.589 13.48 164.249 14.82 163.289 16.5C162.249 18.14 161.729 20 161.729 22.08C161.729 24.04 162.229 25.88 163.229 27.6C164.229 29.28 165.569 30.62 167.249 31.62C168.889 32.62 170.749 33.12 172.829 33.12C174.509 33.12 176.149 32.72 177.749 31.92V38.58C176.109 39.1 174.469 39.36 172.829 39.36C169.709 39.36 166.829 38.58 164.189 37.02C161.549 35.46 159.449 33.34 157.889 30.66C156.329 28.06 155.549 25.2 155.549 22.08C155.549 18.96 156.329 16.08 157.889 13.44C159.449 10.76 161.569 8.64004 164.249 7.08004C166.849 5.56004 169.709 4.80004 172.829 4.80004C175.869 4.80004 178.709 5.56004 181.349 7.08004C184.029 8.56004 186.169 10.58 187.769 13.14ZM224.118 12.06C225.598 14.42 226.338 17.08 226.338 20.04L226.158 39.42H220.038V20.04C220.038 17.28 219.078 15.1 217.158 13.5C215.278 11.9 213.018 11.1 210.378 11.1C207.658 11.1 205.358 11.9 203.478 13.5C201.558 15.1 200.598 17.28 200.598 20.04V39.42H194.478V20.04C194.478 17.08 195.198 14.44 196.638 12.12C198.118 9.80004 200.098 8.02004 202.578 6.78004C205.058 5.54004 207.658 4.92004 210.378 4.92004C213.178 4.92004 215.778 5.56004 218.178 6.84004C220.618 8.08004 222.598 9.82004 224.118 12.06ZM244.905 4.20004V9.84004H230.565V4.36306e-05H237.165V4.20004H244.905ZM241.665 32.94H248.505V39.36H239.865C237.305 39.36 235.105 38.46 233.265 36.66C231.465 34.82 230.565 32.6 230.565 30V16.74H237.165V28.44C237.165 29.68 237.605 30.74 238.485 31.62C239.365 32.5 240.425 32.94 241.665 32.94Z" fill="#4B8CFD"/>
</svg>
